<?xml version="1.0" ?>
<!-- Uploaded to: SVG Repo, www.svgrepo.com, Generator: SVG Repo Mixer Tools -->
<svg width="800px" height="800px" viewBox="0 0 64 64" xmlns="http://www.w3.org/2000/svg">
<defs>
<style>.cls-1{fill:#d8d8fc;}.cls-2{fill:#f03800;}.cls-3{fill:#fdbf00;}.cls-4{fill:#4bb9ec;}.cls-5{fill:#61729b;}.cls-6{fill:#f2f2fc;}</style>
</defs>
<title/>
<g data-name="data analytic" id="data_analytic">
<path class="cls-1" d="M39.334,56V47.963a1,1,0,0,1,1-1h.833v-6.2A17,17,0,0,1,43,7.029V5H5V59H43V57H40.334A1,1,0,0,1,39.334,56ZM7,8A1,1,0,0,1,8,7H24a1,1,0,0,1,1,1V20a1,1,0,0,1-1,1H8a1,1,0,0,1-1-1ZM8,23H24a1,1,0,0,1,0,2H8a1,1,0,0,1,0-2Zm0,4H24a1,1,0,0,1,0,2H8a1,1,0,0,1,0-2ZM18,57a11,11,0,0,1,0-22,1,1,0,0,1,1,1v9h9a1,1,0,0,1,1,1A11.005,11.005,0,0,1,18,57ZM31,44H21a1,1,0,0,1-1-1V33a1,1,0,0,1,1-1A11.005,11.005,0,0,1,32,43,1,1,0,0,1,31,44Z"/>
<path class="cls-2" d="M18,47a1,1,0,0,1-1-1V37.055A9,9,0,1,0,26.945,47Z"/>
<path d="M28,45H19V36a1,1,0,0,0-1-1A11,11,0,1,0,29,46,1,1,0,0,0,28,45ZM18,55a9,9,0,0,1-1-17.945V46a1,1,0,0,0,1,1h8.945A9.007,9.007,0,0,1,18,55Z"/>
<path class="cls-3" d="M22,34.055V42h7.945A9.01,9.01,0,0,0,22,34.055Z"/>
<path d="M21,32a1,1,0,0,0-1,1V43a1,1,0,0,0,1,1H31a1,1,0,0,0,1-1A11.005,11.005,0,0,0,21,32Zm1,10V34.055A9.01,9.01,0,0,1,29.945,42Z"/>
<rect class="cls-4" height="10" width="14" x="9" y="9"/>
<path d="M8,21H24a1,1,0,0,0,1-1V8a1,1,0,0,0-1-1H8A1,1,0,0,0,7,8V20A1,1,0,0,0,8,21ZM9,9H23V19H9Z"/>
<path d="M8,25H24a1,1,0,0,0,0-2H8a1,1,0,0,0,0,2Z"/>
<path d="M8,29H24a1,1,0,0,0,0-2H8a1,1,0,0,0,0,2Z"/>
<path class="cls-5" d="M59,24A15,15,0,1,0,44,39,15.007,15.007,0,0,0,59,24ZM31.571,24A12.429,12.429,0,1,1,44,36.429,12.435,12.435,0,0,1,31.571,24Z"/>
<circle class="cls-4" cx="44" cy="24" r="10.429"/>
<path d="M56.429,24A12.429,12.429,0,1,0,44,36.429,12.435,12.435,0,0,0,56.429,24ZM44,13.571A10.429,10.429,0,1,1,33.571,24,10.434,10.434,0,0,1,44,13.571Z"/>
<polygon class="cls-6" points="43.167 41 43.167 46.963 44.833 46.963 44.833 41 43.167 41"/>
<rect class="cls-5" height="6.037" width="5.331" x="41.334" y="48.963"/>
<path d="M61,24A17.01,17.01,0,0,0,45,7.029V4a1,1,0,0,0-1-1H4A1,1,0,0,0,3,4V60a1,1,0,0,0,1,1H44a1,1,0,0,0,1-1V57h2.666a1,1,0,0,0,1-1V47.963a1,1,0,0,0-1-1h-.833v-6.2A17.015,17.015,0,0,0,61,24ZM46.666,55H41.334V48.963h5.331ZM43,59H5V5H43V7.029a17,17,0,0,0-1.833,33.736v6.2h-.833a1,1,0,0,0-1,1V56a1,1,0,0,0,1,1H43Zm1.833-12.037H43.167V41h1.666ZM29,24A15,15,0,1,1,44,39,15.007,15.007,0,0,1,29,24Z"/>
</g>
</svg>